<?xml version="1.0" encoding="UTF-8" standalone="no"?>
<!DOCTYPE svg PUBLIC "-//W3C//DTD SVG 1.1//EN"
 "http://www.w3.org/Graphics/SVG/1.1/DTD/svg11.dtd">
<!-- Generated by graphviz version 9.0.0 (20230911.1827)
 -->
<!-- Title: Harnessing AI in Ad Content Generation Pages: 1 -->
<svg width="931pt" height="946pt"
 viewBox="0.00 0.00 931.00 946.15" xmlns="http://www.w3.org/2000/svg" xmlns:xlink="http://www.w3.org/1999/xlink">
<g id="graph0" class="graph" transform="scale(1 1) rotate(0) translate(144 802.15)">
<title>Harnessing AI in Ad Content Generation</title>
<polygon fill="white" stroke="none" points="-144,144 -144,-802.15 787,-802.15 787,144 -144,144"/>
<text text-anchor="middle" x="321.5" y="-5.5" font-family="Sans-Serif" font-size="15.00" fill="#2d3436">Harnessing AI in Ad Content Generation</text>
<g id="clust1" class="cluster">
<title>cluster_Ad Content Generation System (Harnessing AI)</title>
<polygon fill="white" stroke="#aeb6be" stroke-dasharray="5,2" points="8,-31.75 8,-539.9 274,-539.9 274,-31.75 8,-31.75"/>
<text text-anchor="middle" x="141.25" y="-524.5" font-family="Sans-Serif" font-size="12.00" fill="#2d3436">Ad Content Generation System (Harnessing AI)</text>
</g>
<!-- 21a5ee77e837430c884bb8d92fef1ecc -->
<g id="node1" class="node">
<title>21a5ee77e837430c884bb8d92fef1ecc</title>
<path fill="#104e8b" stroke="black" d="M422,-119.75C422,-119.75 302,-119.75 302,-119.75 296,-119.75 290,-113.75 290,-107.75 290,-107.75 290,-59.75 290,-59.75 290,-53.75 296,-47.75 302,-47.75 302,-47.75 422,-47.75 422,-47.75 428,-47.75 434,-53.75 434,-59.75 434,-59.75 434,-107.75 434,-107.75 434,-113.75 428,-119.75 422,-119.75"/>
<text text-anchor="start" x="309.88" y="-83.85" font-family="Sans-Serif" font-weight="bold" font-size="12.00" fill="white">Digital Advertisers</text>
<text text-anchor="start" x="345.12" y="-74.7" font-family="Sans-Serif" font-size="9.00" fill="white">[Person]</text>
</g>
<!-- b95f1eb3acfd4c70a2953109e1dde43e -->
<g id="node4" class="node">
<title>b95f1eb3acfd4c70a2953109e1dde43e</title>
<polygon fill="#1874cd" stroke="black" points="257.6,-322.7 70.4,-322.7 70.4,-207.5 257.6,-207.5 257.6,-322.7"/>
<text text-anchor="start" x="44.75" y="-281.7" font-family="Sans-Serif" font-weight="bold" font-size="12.00" fill="white">AI Content Generator (RAIN model&#45;based)</text>
<text text-anchor="start" x="141.5" y="-272.55" font-family="Sans-Serif" font-size="9.00" fill="white">[Container]</text>
<text text-anchor="start" x="87.5" y="-249.6" font-family="Sans-Serif" font-size="10.00" fill="white">Generate ad content based on user</text>
<text text-anchor="start" x="77" y="-239.6" font-family="Sans-Serif" font-size="10.00" fill="white">preferences and campaign requirements</text>
</g>
<!-- 21a5ee77e837430c884bb8d92fef1ecc&#45;&gt;b95f1eb3acfd4c70a2953109e1dde43e -->
<g id="edge1" class="edge">
<title>21a5ee77e837430c884bb8d92fef1ecc&#45;&gt;b95f1eb3acfd4c70a2953109e1dde43e</title>
<path fill="none" stroke="#999999" stroke-dasharray="5,2" d="M289.91,-117.55C287.93,-118.31 285.95,-119.04 284,-119.75 242.33,-134.86 218.19,-114.3 188,-146.75 175.63,-160.05 168.9,-177.94 165.42,-195.74"/>
<polygon fill="#999999" stroke="#999999" points="161.97,-195.15 163.84,-205.58 168.88,-196.26 161.97,-195.15"/>
<text text-anchor="start" x="188" y="-165.38" font-family="Sans-Serif" font-size="10.00" fill="#2d3436">Sends: Campaign</text>
<text text-anchor="start" x="196.62" y="-154.12" font-family="Sans-Serif" font-size="10.00" fill="#2d3436">Requirements</text>
</g>
<!-- 0584a78a582a4f9ebfb7009769ab2c25 -->
<g id="node2" class="node">
<title>0584a78a582a4f9ebfb7009769ab2c25</title>
<path fill="#104e8b" stroke="black" d="M224,-658.15C224,-658.15 104,-658.15 104,-658.15 98,-658.15 92,-652.15 92,-646.15 92,-646.15 92,-598.15 92,-598.15 92,-592.15 98,-586.15 104,-586.15 104,-586.15 224,-586.15 224,-586.15 230,-586.15 236,-592.15 236,-598.15 236,-598.15 236,-646.15 236,-646.15 236,-652.15 230,-658.15 224,-658.15"/>
<text text-anchor="start" x="101.75" y="-622.25" font-family="Sans-Serif" font-weight="bold" font-size="12.00" fill="white">User Base (Audience)</text>
<text text-anchor="start" x="147.12" y="-613.1" font-family="Sans-Serif" font-size="9.00" fill="white">[Person]</text>
</g>
<!-- ad9c823ee963407aa742848329e84c71 -->
<g id="node5" class="node">
<title>ad9c823ee963407aa742848329e84c71</title>
<polygon fill="#1874cd" stroke="black" points="257.6,-503.15 70.4,-503.15 70.4,-387.95 257.6,-387.95 257.6,-503.15"/>
<text text-anchor="start" x="70.25" y="-462.15" font-family="Sans-Serif" font-weight="bold" font-size="12.00" fill="white">User Preference Analysis Engine</text>
<text text-anchor="start" x="141.5" y="-453" font-family="Sans-Serif" font-size="9.00" fill="white">[Container]</text>
<text text-anchor="start" x="84.88" y="-430.05" font-family="Sans-Serif" font-size="10.00" fill="white">Analyze user behavior and feedback</text>
</g>
<!-- 0584a78a582a4f9ebfb7009769ab2c25&#45;&gt;ad9c823ee963407aa742848329e84c71 -->
<g id="edge2" class="edge">
<title>0584a78a582a4f9ebfb7009769ab2c25&#45;&gt;ad9c823ee963407aa742848329e84c71</title>
<path fill="none" stroke="#999999" stroke-dasharray="5,2" d="M164,-585.82C164,-565.43 164,-539.1 164,-514.83"/>
<polygon fill="#999999" stroke="#999999" points="167.5,-515 164,-505 160.5,-515 167.5,-515"/>
<text text-anchor="start" x="164" y="-549.65" font-family="Sans-Serif" font-size="10.00" fill="#2d3436">Sends: User Preferences</text>
</g>
<!-- 8585c3ae34a54b7fb411ece830931a3a -->
<g id="node3" class="node">
<title>8585c3ae34a54b7fb411ece830931a3a</title>
<polygon fill="#999999" stroke="black" points="633,-119.75 489,-119.75 489,-47.75 633,-47.75 633,-119.75"/>
<text text-anchor="start" x="482.62" y="-83.85" font-family="Sans-Serif" font-weight="bold" font-size="12.00" fill="white">AI Model Training Platforms</text>
<text text-anchor="start" x="525.75" y="-74.7" font-family="Sans-Serif" font-size="9.00" fill="white">[External System]</text>
</g>
<!-- 8585c3ae34a54b7fb411ece830931a3a&#45;&gt;b95f1eb3acfd4c70a2953109e1dde43e -->
<g id="edge7" class="edge">
<title>8585c3ae34a54b7fb411ece830931a3a&#45;&gt;b95f1eb3acfd4c70a2953109e1dde43e</title>
<path fill="none" stroke="#999999" stroke-dasharray="5,2" d="M478.29,-117.17C458.93,-125.88 438.73,-135.92 420.75,-146.75 400.02,-159.24 399,-168.46 378,-180.5 340.45,-202.02 296.29,-220.31 257.87,-234.25"/>
<polygon fill="#999999" stroke="#999999" points="479.5,-120.46 487.24,-113.22 476.68,-114.06 479.5,-120.46"/>
<text text-anchor="start" x="420" y="-171" font-family="Sans-Serif" font-size="10.00" fill="#2d3436">Sends: Training Data,</text>
<text text-anchor="start" x="424.88" y="-159.75" font-family="Sans-Serif" font-size="10.00" fill="#2d3436">Feedback on Model</text>
<text text-anchor="start" x="439.88" y="-148.5" font-family="Sans-Serif" font-size="10.00" fill="#2d3436">Performance</text>
</g>
<!-- b95f1eb3acfd4c70a2953109e1dde43e&#45;&gt;21a5ee77e837430c884bb8d92fef1ecc -->
<g id="edge5" class="edge">
<title>b95f1eb3acfd4c70a2953109e1dde43e&#45;&gt;21a5ee77e837430c884bb8d92fef1ecc</title>
<path fill="none" stroke="#999999" stroke-dasharray="5,2" d="M240.76,-207.1C251.48,-198.45 262.17,-189.43 272,-180.5 289.85,-164.28 308.3,-145.13 323.82,-128.24"/>
<polygon fill="#999999" stroke="#999999" points="326.02,-131.02 330.16,-121.27 320.84,-126.31 326.02,-131.02"/>
<text text-anchor="start" x="305" y="-159.75" font-family="Sans-Serif" font-size="10.00" fill="#2d3436">Sends content</text>
</g>
<!-- b95f1eb3acfd4c70a2953109e1dde43e&#45;&gt;8585c3ae34a54b7fb411ece830931a3a -->
<g id="edge6" class="edge">
<title>b95f1eb3acfd4c70a2953109e1dde43e&#45;&gt;8585c3ae34a54b7fb411ece830931a3a</title>
<path fill="none" stroke="#999999" stroke-dasharray="5,2" d="M257.88,-252.68C351.45,-239.53 486.73,-215.2 526,-180.5 540.32,-167.85 548.79,-148.83 553.79,-131.08"/>
<polygon fill="#999999" stroke="#999999" points="557.17,-131.98 556.18,-121.43 550.38,-130.3 557.17,-131.98"/>
<text text-anchor="start" x="547" y="-165.38" font-family="Sans-Serif" font-size="10.00" fill="#2d3436">Receives: Updated AI</text>
<text text-anchor="start" x="579.25" y="-154.12" font-family="Sans-Serif" font-size="10.00" fill="#2d3436">Models</text>
</g>
<!-- 3ca70c6eb7e04ccc80cab203a81b8c9d -->
<g id="node6" class="node">
<title>3ca70c6eb7e04ccc80cab203a81b8c9d</title>
<path fill="#1874cd" stroke="black" d="M168,-113.2C168,-116.82 135.73,-119.75 96,-119.75 56.27,-119.75 24,-116.82 24,-113.2 24,-113.2 24,-54.3 24,-54.3 24,-50.68 56.27,-47.75 96,-47.75 135.73,-47.75 168,-50.68 168,-54.3 168,-54.3 168,-113.2 168,-113.2"/>
<path fill="none" stroke="black" d="M168,-113.2C168,-109.59 135.73,-106.66 96,-106.66 56.27,-106.66 24,-109.59 24,-113.2"/>
<text text-anchor="start" x="59.25" y="-62.79" font-family="Sans-Serif" font-weight="bold" font-size="12.00" fill="white">Ad Database</text>
<text text-anchor="start" x="73.88" y="-53.64" font-family="Sans-Serif" font-size="9.00" fill="white">[Database]</text>
</g>
<!-- b95f1eb3acfd4c70a2953109e1dde43e&#45;&gt;3ca70c6eb7e04ccc80cab203a81b8c9d -->
<g id="edge4" class="edge">
<title>b95f1eb3acfd4c70a2953109e1dde43e&#45;&gt;3ca70c6eb7e04ccc80cab203a81b8c9d</title>
<path fill="none" stroke="#999999" stroke-dasharray="5,2" d="M92.63,-207.1C86.03,-198.89 80.31,-189.98 76.25,-180.5 69.57,-164.91 71.11,-146.9 75.48,-130.73"/>
<polygon fill="#999999" stroke="#999999" points="78.78,-131.92 78.44,-121.33 72.1,-129.82 78.78,-131.92"/>
<text text-anchor="start" x="77" y="-159.75" font-family="Sans-Serif" font-size="10.00" fill="#2d3436">Stores content</text>
</g>
<!-- ad9c823ee963407aa742848329e84c71&#45;&gt;b95f1eb3acfd4c70a2953109e1dde43e -->
<g id="edge3" class="edge">
<title>ad9c823ee963407aa742848329e84c71&#45;&gt;b95f1eb3acfd4c70a2953109e1dde43e</title>
<path fill="none" stroke="#999999" stroke-dasharray="5,2" d="M164,-387.6C164,-370.69 164,-352.01 164,-334.46"/>
<polygon fill="#999999" stroke="#999999" points="167.5,-334.64 164,-324.64 160.5,-334.64 167.5,-334.64"/>
<text text-anchor="start" x="164" y="-351.45" font-family="Sans-Serif" font-size="10.00" fill="#2d3436">Sends analyzed data</text>
</g>
</g>
</svg>
